<?xml version="1.0" encoding="UTF-8" standalone="no"?>
<!DOCTYPE svg PUBLIC "-//W3C//DTD SVG 1.1//EN" "http://www.w3.org/Graphics/SVG/1.1/DTD/svg11.dtd">
<svg xmlns="http://www.w3.org/2000/svg" xmlns:xlink="http://www.w3.org/1999/xlink" version="1.1" width="594.95999pt" height="842.25pt" viewBox="0 0 594.95999 842.25">
<g enable-background="new">
<g>
<clipPath id="cp6">
<path transform="matrix(.24,0,0,.24,0,0)" d="M 0 -.00024414063 L 2479.1666 -.00024414063 L 2479.1666 3506.4283 L 0 3506.4283 Z " fill-rule="evenodd"/>
</clipPath>
<g clip-path="url(#cp6)">
<path transform="matrix(.7493702,0,0,.7493702,0,-848.2871)" d="M 0 1132 L 794 1132 L 794 2255 L 0 2255 Z " fill="#ffffff"/>
</g>
<clipPath id="cp7">
<path transform="matrix(.24,0,0,.24,0,0)" d="M 0 -.00024414063 L 2479.1666 -.00024414063 L 2479.1666 3506.428 L 0 3506.428 Z " fill-rule="evenodd"/>
</clipPath>
<g clip-path="url(#cp7)">
<path transform="matrix(.7493702,0,0,.7493702,0,-.00005859375)" d="M 0 0 L 794 0 L 794 1123 L 0 1123 Z " fill="#ffffff"/>
</g>
<clipPath id="cp8">
<path transform="matrix(.24,0,0,.24,0,0)" d="M 0 -.00024414063 L 2479.1666 -.00024414063 L 2479.1666 3506.4283 L 0 3506.4283 Z " fill-rule="evenodd"/>
</clipPath>
<g clip-path="url(#cp8)">
<g opacity=".2471">
<clipPath id="cp9">
<path transform="matrix(.24,0,0,.24,294.72,0)" d="M 0 0 L 1251 0 L 1251 3507 L 0 3507 Z " fill-rule="evenodd"/>
</clipPath>
<g clip-path="url(#cp9)">
<g id="Layer-1" data-name="P">
</g>
<text fill="#828282" xml:space="preserve" transform="matrix(.7493702 0 0 .7493702 298.54475 -170.72258)" font-size="48.67" font-family="CAGenerated"><tspan y="263" x="0 19.267868 43.450014 80.331439 104.07567 128.35512 150.78565 165.6258 189.37003 201.43677 225.181 249.46045 260.846 275.68617 287.5096 302.34977 326.53193 350.42213 361.80769 373.87443 397.37538">T&#x00f6;m&#x00e9;nytelen titok lap</tspan></text>
<g id="Layer-1" data-name="P">
</g>
<text fill="#828282" xml:space="preserve" transform="matrix(.7493702 0 0 .7493702 298.54475 -170.72258)" font-size="48.67" font-family="CAGenerated"><tspan y="333" x="0 19.413834 43.158067 55.224809 79.45561 103.63776 128.01453 152.58592 176.08689 190.92704 215.20648 238.70745 250.093 273.83723 298.35997 320.79048 332.17604 356.06623 379.5672 394.40736">Feldobhatn&#x00e1; egy kata</tspan></text>
<g id="Layer-1" data-name="P">
</g>
<text fill="#828282" xml:space="preserve" transform="matrix(.7493702 0 0 .7493702 298.54475 -170.72258)" font-size="48.67" font-family="CAGenerated"><tspan y="403" x="0 11.044968 25.885117 40.725267 52.110826 88.99225 112.49321 125.289798 149.5206 160.90616 184.65039 209.17313 231.60366 242.98921 267.26869 291.4508 315.73027 339.4745 363.3647 374.75025">Itt majd egy n&#x0151;nek n</tspan></text>
<g id="Layer-1" data-name="P">
</g>
<text fill="#828282" xml:space="preserve" transform="matrix(.7493702 0 0 .7493702 298.54475 -170.72258)" font-size="48.67" font-family="CAGenerated"><tspan y="473" x="0 11.044968 25.885117 40.725267 52.110826 88.99225 112.49321 125.289798 149.5206 160.90616 184.65039 209.17313 231.60366 242.98921 267.26869 291.4508 315.73027 339.4745 363.3647 374.75025">Itt majd egy n&#x0151;nek n</tspan></text>
<g id="Layer-1" data-name="P">
</g>
<text fill="#828282" xml:space="preserve" transform="matrix(.7493702 0 0 .7493702 298.54475 -170.72258)" font-size="48.67" font-family="CAGenerated"><tspan y="543" x="0 23.598267 34.983827 59.21463 82.71559 94.78233 119.1591 142.66007 166.93952 178.42238 189.80794 213.55217 236.66388 248.04944 271.5504 290.33174 301.7173 315.34104 339.08528 351.152 365.99217 390.2716">A dalban, &#x00e9;s az felt&#x00fc;z</tspan></text>
<g id="Layer-1" data-name="P">
</g>
<text fill="#828282" xml:space="preserve" transform="matrix(.7493702 0 0 .7493702 298.54475 -170.72258)" font-size="48.67" font-family="CAGenerated"><tspan y="613" x="0 19.413834 43.693284 55.760026 79.50426 103.73506 128.11183 151.85607 163.24163 187.6184 211.89785 236.42058 247.90345 259.289 283.8604 308.04255 332.56529 354.9958 366.7706 378.15617">F&#x00fc;ledbe b&#x00fa;g, hogy: &#x00e9;</tspan></text>
<g id="Layer-1" data-name="P">
</g>
<text fill="#828282" xml:space="preserve" transform="matrix(.7493702 0 0 .7493702 298.54475 -170.72258)" font-size="48.67" font-family="CAGenerated"><tspan y="683" x="0 19.413834 43.693284 55.760026 79.50426 116.38568 140.76245 164.50669 175.89225 200.26902 224.54846 249.0712 260.55409 271.93965 296.51106 320.69319 345.2159 367.64643 379.42124 390.8068">F&#x00fc;lembe b&#x00fa;g, hogy: &#x00e9;</tspan></text>
<g id="Layer-1" data-name="P">
</g>
<text fill="#828282" xml:space="preserve" transform="matrix(.7493702 0 0 .7493702 298.54475 -170.72258)" font-size="48.67" font-family="CAGenerated"><tspan y="753" x="0 24.230805 47.975038 84.85646 96.24202 119.98625 136.724 161.00345 184.74768 196.13324 233.01467 256.7589 281.28166 292.76454 304.1501 328.7215 352.22248 363.60804 387.35227">Nem &#x00e9;rn&#x00e9; meg, ha &#x00e9;r</tspan></text>
<g id="Layer-1" data-name="P">
</g>
<text fill="#828282" xml:space="preserve" transform="matrix(.7493702 0 0 .7493702 298.54475 -170.72258)" font-size="48.67" font-family="CAGenerated"><tspan y="823" x="0 20.046372 32.113115 68.99454 93.27399 105.34073 120.18088 131.56644 143.3899 167.6207 191.80284 215.69306 227.17592 238.56148 262.4517 286.19593 310.52406 334.26829 357.38 369.44676 392.9477">Elm&#x00fa;lt id&#x0151;k, k&#x00e9;peslap</tspan></text>
<g id="Layer-1" data-name="P">
</g>
<text fill="#828282" xml:space="preserve" transform="matrix(.7493702 0 0 .7493702 298.54475 -170.72258)" font-size="48.67" font-family="CAGenerated"><tspan y="893" x="0 20.046372 32.113115 68.99454 93.27399 105.34073 120.18088 131.56644 143.3899 167.6207 191.80284 215.69306 227.17592 238.56148 262.4517 286.19593 310.52406 334.26829 357.38 369.44676 392.9477">Elm&#x00fa;lt id&#x0151;k, k&#x00e9;peslap</tspan></text>
<g id="Layer-1" data-name="P">
</g>
<text fill="#828282" xml:space="preserve" transform="matrix(.7493702 0 0 .7493702 298.54475 -170.72258)" font-size="48.67" font-family="CAGenerated"><tspan y="963" x="0 23.06305 41.844347 65.58858 89.86803 114.14748 137.89171 174.77313 186.15869 210.0489 233.79314 258.07258 281.8168 293.5916 304.97718 341.85859 365.6028 390.12556">&#x00dc;zennem k&#x00e9;ne: megv</tspan></text>
<g id="Layer-1" data-name="P">
</g>
<text fill="#828282" xml:space="preserve" transform="matrix(.7493702 0 0 .7493702 298.54475 -170.72258)" font-size="48.67" font-family="CAGenerated"><tspan y="1033" x="0 23.06305 41.844347 65.58858 89.86803 114.14748 137.89171 174.77313 186.15869 209.65966 228.44095 243.2811 254.76396 266.14955 290.72096 314.90309 339.4258 361.85633 373.63114 385.0167">&#x00dc;zennem azt, hogy: l</tspan></text>
<g id="Layer-1" data-name="P">
</g>
<text fill="#828282" xml:space="preserve" transform="matrix(.7493702 0 0 .7493702 298.54475 -170.72258)" font-size="48.67" font-family="CAGenerated"><tspan y="1103" x="0 23.06305 41.844347 65.58858 89.86803 114.14748 137.89171 174.77313 186.15869 209.65966 228.44095 243.2811 254.76396 266.14955 290.72096 314.90309 339.4258 361.85633 373.63114 385.0167">&#x00dc;zennem azt, hogy: l</tspan></text>
<g id="Layer-1" data-name="P">
</g>
<text fill="#828282" xml:space="preserve" transform="matrix(.7493702 0 0 .7493702 298.54475 -170.72258)" font-size="48.67" font-family="CAGenerated"><tspan y="1173" x="0 36.297548 48.121004 60.187746 72.254489 84.07794 108.260089 119.645648 143.53586 166.64757 190.82971 214.71993 226.20279 237.58835 261.8678 286.0986 308.5291 332.71125 351.49256 363.5593 387.30354">Milli&#x00f3; cs&#x00f3;k, &#x00fc;dv&#x00f6;zlet</tspan></text>
<g id="Layer-1" data-name="P">
</g>
<text fill="#828282" xml:space="preserve" transform="matrix(.7493702 0 0 .7493702 298.54475 -170.72258)" font-size="48.67" font-family="CAGenerated"><tspan y="1243" x="0 36.297548 59.798509 76.536258 87.921817 112.20126 135.9455 172.82692 184.21248 206.643 230.14397 254.6667 277.09724 288.4828 300.30625 315.1464 329.98655 341.46943 352.85499 376.5992">M&#x00e1;r nem vagy itt, &#x00e9;s</tspan></text>
<g id="Layer-1" data-name="P">
</g>
<text fill="#828282" xml:space="preserve" transform="matrix(.7493702 0 0 .7493702 298.54475 -170.72258)" font-size="48.67" font-family="CAGenerated"><tspan y="1313" x="0 36.297548 59.798509 76.536258 87.921817 112.20126 135.9455 172.82692 184.21248 206.643 230.14397 254.6667 277.09724 288.4828 300.30625 315.1464 329.98655 341.46943 352.85499 376.5992">M&#x00e1;r nem vagy itt, &#x00e9;s</tspan></text>
<g id="Layer-1" data-name="P">
</g>
<text fill="#828282" xml:space="preserve" transform="matrix(.7493702 0 0 .7493702 298.54475 -170.72258)" font-size="48.67" font-family="CAGenerated"><tspan y="1383" x="0 34.983827 49.823976 73.56821 101.69151 138.57294 162.0739 196.57117 220.89928 245.08142 269.36088 284.20103 296.99763 320.4986 346.7243 370.6145 394.79664">At&#x00e9;rm&#x00e1;spontj&#x00e1;tkop</tspan></text>
</g>
</g>
</g>
<clipPath id="cp10">
<path transform="matrix(.24,0,0,.24,0,0)" d="M 1229.8556 -.00024414063 L 1245.4675 -.00024414063 L 1245.4675 3506.4283 L 1229.8556 3506.4283 Z " fill-rule="evenodd"/>
</clipPath>
<g clip-path="url(#cp10)">
<path transform="matrix(2.788011,0,0,2.788011,295.16535,-12.738515)" d="M 0 0 L 1 0 L 1 310 L 0 310 Z " fill="#828282"/>
</g>
<clipPath id="cp11">
<path transform="matrix(.24,0,0,.24,0,0)" d="M 0 -.00024414063 L 2479.1666 -.00024414063 L 2479.1666 3506.4283 L 0 3506.4283 Z " fill-rule="evenodd"/>
</clipPath>
<g clip-path="url(#cp11)">
<g id="Layer-1" data-name="P">
</g>
<text fill="#828282" xml:space="preserve" transform="matrix(.000000000000000045885695 -.7493702 .7493702 .000000000000000045885695 200.97597 664.7358)" font-size="133.36" font-family="CooperHewitt"><tspan y="125" x=".015625 78.1642 158.31317 244.46332 310.60957 396.7597 482.90986 567.7264">PROL&#x00d3;GUS</tspan></text>
<path transform="matrix(.7506735,0,0,.7493702,169.46242,66.07664)" stroke-width="3" stroke-linecap="butt" stroke-miterlimit="4" stroke-linejoin="miter" fill="none" stroke="#828282" d="M -.000000000000014210855 1.5 L 170.71062 1.5 "/>
<path transform="matrix(.7499525,0,0,.7493702,111.97221,183.98519)" stroke-width="4" stroke-linecap="butt" stroke-miterlimit="4" stroke-linejoin="miter" fill="none" stroke="#828282" d="M 0 2 L 160.88715 2 "/>
<path transform="matrix(.75082597,.00000000000000031210679,-.00000000000000031150164,.7493702,130.06249,320.912)" stroke-width="4" stroke-linecap="butt" stroke-miterlimit="4" stroke-linejoin="miter" fill="none" stroke="#828282" d="M 0 2 L 136.74652 2 "/>
<path transform="matrix(.74843248,0,0,.7493702,137.96657,684.5253)" stroke-width="4" stroke-linecap="butt" stroke-miterlimit="4" stroke-linejoin="miter" fill="none" stroke="#828282" d="M 0 2 L 212.2745 2 "/>
<g id="Layer-1" data-name="P">
</g>
<text fill="#828282" xml:space="preserve" transform="matrix(.7493702 0 0 .7493702 140.4858 24.631815)" font-size="66.7" font-family="Barlow" font-weight="bold"><tspan y="72" x="0">4</tspan></text>
<g id="Layer-1" data-name="P">
</g>
<text fill="#828282" xml:space="preserve" transform="matrix(.7493702 0 0 .7493702 18.937266 173.84566)" font-size="20.03" font-family="CooperHewitt"><tspan y="14" x="12.578125 23.586777 35.195894 39.199037 52.009096 65.41963 71.42435">JE SUIS</tspan></text>
<g id="Layer-1" data-name="P">
</g>
<text fill="#828282" xml:space="preserve" transform="matrix(.7493702 0 0 .7493702 18.937266 173.84566)" font-size="20.03" font-family="CooperHewitt"><tspan y="34" x=".078125 12.888184 25.898407 39.509096 52.519319 65.52954 78.23952">S&#x00c1;GV&#x00c1;RI</tspan></text>
<g id="Layer-1" data-name="P">
</g>
<text fill="#828282" xml:space="preserve" transform="matrix(.7493702 0 0 .7493702 1.6791967 514.25436)" font-size="20.03" font-family="CooperHewitt"><tspan y="12" x=".0625 17.876496 29.485611 43.296464">MENS</tspan></text>
<g id="Layer-1" data-name="P">
</g>
<text fill="#828282" xml:space="preserve" transform="matrix(.7493702 0 0 .7493702 1.6791967 514.25436)" font-size="20.03" font-family="CooperHewitt"><tspan y="29" x="3.453125 16.263184 29.273407 43.08426">SANA</tspan></text>
<g id="Layer-1" data-name="P">
</g>
<text fill="#828282" xml:space="preserve" transform="matrix(.7493702 0 0 .7493702 85.1471 150.63832)" font-size="66.66" font-family="Barlow" font-weight="bold"><tspan y="72" x="0">6</tspan></text>
<g id="Layer-1" data-name="P">
</g>
<text fill="#828282" xml:space="preserve" transform="matrix(.7493702 0 0 .7493702 59.8453 61.955099)" font-size="20.03" font-family="CooperHewitt"><tspan y="12" x="4.421875 17.332016 30.34224 43.25238 56.262605">KAKAS</tspan></text>
<g id="Layer-1" data-name="P">
</g>
<text fill="#828282" xml:space="preserve" transform="matrix(.7493702 0 0 .7493702 59.8453 61.955099)" font-size="20.03" font-family="CooperHewitt"><tspan y="12" x="69.0625 82.47304 93.081378">&#x00dc;L&#x0150;</tspan></text>
<g id="Layer-1" data-name="P">
</g>
<text fill="#828282" xml:space="preserve" transform="matrix(.7493702 0 0 .7493702 43.71418 489.15046)" font-size="66.66" font-family="Barlow" font-weight="bold"><tspan y="72" x="0 37.32756">20</tspan></text>
<g id="Layer-1" data-name="P">
</g>
<text fill="#828282" xml:space="preserve" transform="matrix(.7493702 0 0 .7493702 .7228275 312.33058)" font-size="20.03" font-family="CooperHewitt"><tspan y="14" x=".875 12.083801 25.694489 36.302827 49.713365 63.32405 76.23419 89.84488 101.253849">F&#x00d6;LDOBOTT</tspan></text>
<g id="Layer-1" data-name="P">
</g>
<text fill="#828282" xml:space="preserve" transform="matrix(.7493702 0 0 .7493702 .7228275 312.33058)" font-size="20.03" font-family="CooperHewitt"><tspan y="34" x="86.140628 99.050769">K&#x0150;</tspan></text>
<g id="Layer-1" data-name="P">
</g>
<text fill="#828282" xml:space="preserve" transform="matrix(.7493702 0 0 .7493702 85.1471 287.565)" font-size="66.66" font-family="Barlow" font-weight="bold"><tspan y="72" x="0 22.596497">12</tspan></text>
<g id="Layer-1" data-name="P">
</g>
<text fill="#828282" xml:space="preserve" transform="matrix(.7493702 0 0 .7493702 19.259263 672.5354)" font-size="20.03" font-family="CooperHewitt"><tspan y="14" x="6.25 24.063996 37.474534 50.28459 63.89528 76.605258">M&#x0170;SOR-</tspan></text>
<g id="Layer-1" data-name="P">
</g>
<text fill="#828282" xml:space="preserve" transform="matrix(.7493702 0 0 .7493702 19.259263 672.5354)" font-size="20.03" font-family="CooperHewitt"><tspan y="34" x="23.953125 35.161928 48.572465 60.78206 72.391178">F&#x00dc;ZET</tspan></text>
<g id="Layer-1" data-name="P">
</g>
<text fill="#828282" xml:space="preserve" transform="matrix(.7493702 0 0 .7493702 81.45937 648.49618)" font-size="66.66" font-family="Barlow" font-weight="bold"><tspan y="72" x=".015625 37.343187">28</tspan></text>
<g id="Layer-1" data-name="P">
</g>
<text fill="#828282" xml:space="preserve" transform="matrix(.7493702 0 0 .7493702 111.97221 191.39579)" font-size="14.7" font-family="CooperHewitt" font-weight="bold"><tspan y="12" x="0 6.5359499 9.473465 18.741303 26.804764 35.955095 44.018556 46.95607 55.7686 64.58113 73.39366">&#x2022; S&#x00e1;Ra 2022</tspan></text>
<g id="Layer-1" data-name="P">
</g>
<text fill="#828282" xml:space="preserve" transform="matrix(.7493702 0 0 .7493702 111.97221 191.39579)" font-size="14.7" font-family="CooperHewitt" font-weight="bold"><tspan y="36" x="0 6.5359499 9.473465 13.630035 22.148804 28.479126 36.6454 42.30011 46.236375 54.755144 57.692659 67.57738 71.48427 79.54773 87.30275">&#x2022; Interj&#x00fa; Olasz</tspan></text>
<g id="Layer-1" data-name="P">
</g>
<text fill="#828282" xml:space="preserve" transform="matrix(.7493702 0 0 .7493702 111.97221 191.39579)" font-size="14.7" font-family="CooperHewitt" font-weight="bold"><tspan y="53" x="0 9.414719 17.933487 26.452256 34.515718 42.579179 50.64264">Ann&#x00e1;val</tspan></text>
<g id="Layer-1" data-name="P">
</g>
<text fill="#828282" xml:space="preserve" transform="matrix(.7493702 0 0 .7493702 111.97221 191.39579)" font-size="14.7" font-family="CooperHewitt" font-weight="bold"><tspan y="77" x="0 6.5359499 9.473465 18.741303 26.804764 35.235414 43.298875 51.362337 57.017045 60.923936 66.10864 74.62741 82.69087 91.12152 94.05904 102.87157 111.6841 120.49663">&#x2022; S&#x00e1;gv&#x00e1;ri-nap 2022</tspan></text>
<g id="Layer-1" data-name="P">
</g>
<text fill="#828282" xml:space="preserve" transform="matrix(.7493702 0 0 .7493702 306.40589 387.36936)" font-size="26.66" font-family="CooperHewitt" font-weight="bold"><tspan y="25" x="0 23.1642 30.25473 45.7153 61.229188 76.05 91.510578 96.84181 108.33061 122.96484 138.42542 153.05965 163.32227 178.78284 194.24341 209.22417 224.68474 239.31897 254.29973">Minden tan&#x00e1;runknak,</tspan></text>
<g id="Layer-1" data-name="P">
</g>
<text fill="#828282" xml:space="preserve" transform="matrix(.7493702 0 0 .7493702 306.40589 387.36936)" font-size="26.66" font-family="CooperHewitt" font-weight="bold"><tspan y="62" x="0 14.634232 29.61499 36.70552 42.03676 56.857576 63.948106 79.408679 94.04291 109.34354 124.03108 139.49166 146.58219 151.91342 166.89418 181.715 197.17557 211.86312 225.93756 239.23899 254.0598 264.32243 279.783 286.87355">aki elhagyni k&#x00e9;nyszer&#x00fc;lt</tspan></text>
<g id="Layer-1" data-name="P">
</g>
<text fill="#828282" xml:space="preserve" transform="matrix(.7493702 0 0 .7493702 306.40589 387.36936)" font-size="26.66" font-family="CooperHewitt" font-weight="bold"><tspan y="99" x="0 14.634232 19.96547 35.266099 50.086915 65.6008 80.23503 95.53566 110.356479 125.657108 141.11768 155.19213 162.28266 167.61389 182.91452 197.54875 204.63928 219.32683 233.96106 245.44986">a pedag&#x00f3;gusi p&#x00e1;ly&#x00e1;t.</tspan></text>
<g id="Layer-1" data-name="P">
</g>
<text fill="#828282" xml:space="preserve" transform="matrix(.7493702 0 0 .7493702 170.98674 70.39664)" font-size="14.7" font-family="CooperHewitt" font-weight="bold"><tspan y="12" x="0 6.5359499 9.473465 19.211304 27.377579 33.032289 41.551057 49.71733 57.971727 60.90924 65.06581 77.74115 83.39586 91.56213 94.49965 102.665927">&#x2022; Hornok Imre &#x00e9;s</tspan></text>
<g id="Layer-1" data-name="P">
</g>
<text fill="#828282" xml:space="preserve" transform="matrix(.7493702 0 0 .7493702 170.98674 70.39664)" font-size="14.7" font-family="CooperHewitt" font-weight="bold"><tspan y="29" x="0 7.887207 16.053483 24.57225 32.738527 36.645418 39.58293 48.76265 52.66954 60.733 69.25177 77.79991 81.7068 89.77026 92.70778 101.22655 109.39282 117.45628 125.62256 129.52945 133.43634 141.4998">Jenei Klaudia novell&#x00e1;i</tspan></text>
<g id="Layer-1" data-name="P">
</g>
<text fill="#828282" xml:space="preserve" transform="matrix(.7493702 0 0 .7493702 170.98674 70.39664)" font-size="14.7" font-family="CooperHewitt" font-weight="bold"><tspan y="53" x="0 6.5359499">&#x2022; </tspan></text>
<g id="Layer-1" data-name="P">
</g>
<text fill="#828282" xml:space="preserve" transform="matrix(.7493702 0 0 .7493702 170.98674 70.39664)" font-size="14.7" font-family="CooperHewitt" font-weight="bold"><tspan y="53" x="9.46875 19.500336 27.563797 35.994447 44.08728 47.024797 56.292634 64.45891 72.97768 81.14395 89.69209 97.85837 106.11276 109.05028 121.81375 129.87722 136.20754">Nagy Benedek M&#x00e1;t&#x00e9;</tspan></text>
<g id="Layer-1" data-name="P">
</g>
<text fill="#828282" xml:space="preserve" transform="matrix(.7493702 0 0 .7493702 170.98674 70.39664)" font-size="14.7" font-family="CooperHewitt" font-weight="bold"><tspan y="70" x="0 8.166275 15.921295 18.85881 27.803528 35.86699 43.93045 47.83734 56.003618 64.06708 67.97397 74.30429 82.05931 84.996829 94.881549 98.78844 105.11876 111.44908">&#x00e9;s Pavlovits Gitta</tspan></text>
<g id="Layer-1" data-name="P">
</g>
<text fill="#828282" xml:space="preserve" transform="matrix(.7493702 0 0 .7493702 170.98674 70.39664)" font-size="14.7" font-family="CooperHewitt" font-weight="bold"><tspan y="87" x="0 8.063461 16.229737 21.884446 29.639466 37.80574">versei</tspan></text>
<g id="Layer-1" data-name="P">
</g>
<text fill="#828282" xml:space="preserve" transform="matrix(.7493702 0 0 .7493702 100.162837 531.4898)" font-size="14.7" font-family="CooperHewitt" font-weight="bold"><tspan y="12" x="0 6.5359499 9.473465 17.88942 24.219742 32.474138 40.64041 47.969499 56.135774 63.890794 67.79768 70.7352 78.064289 86.12775 94.19121 102.25467 107.90938 116.07565">&#x2022; &#x00c9;tkez&#x00e9;si zavarok</tspan></text>
<g id="Layer-1" data-name="P">
</g>
<text fill="#828282" xml:space="preserve" transform="matrix(.7493702 0 0 .7493702 100.162837 531.4898)" font-size="14.7" font-family="CooperHewitt" font-weight="bold"><tspan y="36" x="0 6.5359499 9.473465 18.888184 21.825699 28.156022 36.322298 44.57669 52.742967 56.649858 64.81613 71.146457 79.31273 87.06775 94.82277 102.989048 111.41969 114.35721 122.42067 128.75099 137.00539">&#x2022; A t&#x00f6;k&#x00e9;letess&#x00e9;g &#x00e1;tka</tspan></text>
<g id="Layer-1" data-name="P">
</g>
<text fill="#828282" xml:space="preserve" transform="matrix(.7493702 0 0 .7493702 100.162837 531.4898)" font-size="14.7" font-family="CooperHewitt" font-weight="bold"><tspan y="60" x="0 6.5359499 9.473465 18.741303 26.070389 34.236665 46.912004 55.078279 58.98517 67.078 70.98489 78.739917 86.90619 95.33684 102.665927 110.729389 118.79285 126.85631 132.51102 140.67729">&#x2022; Szem&#x00e9;lyis&#x00e9;gzavarok</tspan></text>
<g id="Layer-1" data-name="P">
</g>
<text fill="#828282" xml:space="preserve" transform="matrix(.7493702 0 0 .7493702 100.162837 531.4898)" font-size="14.7" font-family="CooperHewitt" font-weight="bold"><tspan y="84" x="0 6.5359499 9.473465 19.50505 27.671326 40.346666 43.28418 47.19107 54.94609 57.883607 64.21393 72.7327 81.28084 89.44711 97.995258 101.902149 104.83966 117.515 121.42189">&#x2022; Nem is tudod, mit</tspan></text>
<g id="Layer-1" data-name="P">
</g>
<text fill="#828282" xml:space="preserve" transform="matrix(.7493702 0 0 .7493702 100.162837 531.4898)" font-size="14.7" font-family="CooperHewitt" font-weight="bold"><tspan y="101" x="0 6.3303225 14.849091 23.397233 31.152253">tudsz</tspan></text>
<path transform="matrix(.74744448,0,0,.7493702,100.162837,523.99618)" stroke-width="4" stroke-linecap="butt" stroke-miterlimit="4" stroke-linejoin="miter" fill="none" stroke="#828282" d="M 0 2 L 188.49243 2 "/>
<g id="Layer-1" data-name="P">
</g>
<text fill="#828282" xml:space="preserve" transform="matrix(.7493702 0 0 .7493702 130.06249 327.31794)" font-size="14.7" font-family="CooperHewitt" font-weight="bold"><tspan y="12" x="0 6.5359499 9.473465 13.630035 21.385056 29.63945 37.805727 41.712617 49.776079 58.294847 66.54924 69.486759 73.39365 81.14867 84.08618">&#x2022; Iskol&#x00e1;nk is a</tspan></text>
<g id="Layer-1" data-name="P">
</g>
<text fill="#828282" xml:space="preserve" transform="matrix(.7493702 0 0 .7493702 130.06249 327.31794)" font-size="14.7" font-family="CooperHewitt" font-weight="bold"><tspan y="29" x="0 7.740326 15.495346 19.402237 23.309128 27.216019 35.27948 43.71013 51.876405 60.1308 66.46112 74.627399">csillagokt&#x00f3;l</tspan></text>
<g id="Layer-1" data-name="P">
</g>
<text fill="#828282" xml:space="preserve" transform="matrix(.7493702 0 0 .7493702 130.06249 327.31794)" font-size="14.7" font-family="CooperHewitt" font-weight="bold"><tspan y="46" x="0 7.75502 15.084106 23.147568 28.802277 41.477617 49.541078 56.870164 60.777055">sz&#x00e1;rmazik</tspan></text>
<g id="Layer-1" data-name="P">
</g>
<text fill="#828282" xml:space="preserve" transform="matrix(.7493702 0 0 .7493702 130.06249 327.31794)" font-size="14.7" font-family="CooperHewitt" font-weight="bold"><tspan y="70" x="0 6.5359499 9.473465 18.741303 22.648194 30.711655 43.386995 46.32451 55.269227 63.4355 71.601779 77.9321 83.58681">&#x2022; Slam Poetry</tspan></text>
<g id="Layer-1" data-name="P">
</g>
<text fill="#828282" xml:space="preserve" transform="matrix(.7493702 0 0 .7493702 130.06249 327.31794)" font-size="14.7" font-family="CooperHewitt" font-weight="bold"><tspan y="82" x="0"> </tspan></text>
<g id="Layer-1" data-name="P">
</g>
<text fill="#828282" xml:space="preserve" transform="matrix(.7493702 0 0 .7493702 130.06249 327.31794)" font-size="14.7" font-family="CooperHewitt" font-weight="bold"><tspan y="94" x="0 6.5359499 9.473465 18.888184 21.825699 34.501039 38.40793 46.838579 52.493288 60.556749 68.29707 72.203968">&#x2022; A migr&#x00e1;ci&#x00f3;</tspan></text>
<g id="Layer-1" data-name="P">
</g>
<text fill="#828282" xml:space="preserve" transform="matrix(.7493702 0 0 .7493702 130.06249 327.31794)" font-size="14.7" font-family="CooperHewitt" font-weight="bold"><tspan y="111" x="0 8.254395 16.42067 22.075379 30.62352 38.789796 46.544816 54.71109 57.648607 63.303316 71.46959 79.90024 88.06651">k&#x00e9;rd&#x00e9;se r&#x00e9;gen</tspan></text>
<g id="Layer-1" data-name="P">
</g>
<text fill="#828282" xml:space="preserve" transform="matrix(.7493702 0 0 .7493702 130.06249 327.31794)" font-size="14.7" font-family="CooperHewitt" font-weight="bold"><tspan y="135" x="0 6.5359499 9.473465 18.741303 26.804764 32.459474 40.89012 44.797014 52.963289 55.900804 64.41957 72.48303 78.813358 86.876819 94.631839 102.6953 105.63281">&#x2022; Barbie hat&#x00e1;sa a</tspan></text>
<g id="Layer-1" data-name="P">
</g>
<text fill="#828282" xml:space="preserve" transform="matrix(.7493702 0 0 .7493702 130.06249 327.31794)" font-size="14.7" font-family="CooperHewitt" font-weight="bold"><tspan y="152" x="0 6.3303225 14.393784 20.048493 27.803513 35.866975 44.415117 52.478578 56.385469 69.06081 77.579578 86.09834 94.35274 100.00745">t&#x00e1;rsadalmunkra</tspan></text>
<g id="Layer-1" data-name="P">
</g>
<text fill="#828282" xml:space="preserve" transform="matrix(.7493702 0 0 .7493702 137.96657 689.7709)" font-size="14.7" font-family="CooperHewitt" font-weight="bold"><tspan y="12" x="0 6.5359499 9.473465 18.888184 22.795075 31.225724 39.74449 52.41983 60.48329 64.419559 72.48302 81.001789 84.908679 93.07495">&#x2022; Albumaj&#x00e1;nl&#x00f3;:</tspan></text>
<g id="Layer-1" data-name="P">
</g>
<text fill="#828282" xml:space="preserve" transform="matrix(.7493702 0 0 .7493702 137.96657 689.7709)" font-size="14.7" font-family="CooperHewitt" font-weight="bold"><tspan y="12" x="96.96875"> </tspan></text>
<g id="Layer-1" data-name="P">
</g>
<text fill="#828282" xml:space="preserve" transform="matrix(.7493702 0 0 .7493702 137.96657 689.7709)" font-size="14.7" font-family="CooperHewitt" font-weight="bold"><tspan y="29" x="0 12.7634739 22.648194 31.798523 41.53636 50.95108 55.10765 59.01454 61.952058 69.60426 79.01898 83.17555 92.91339 102.79811 106.705 109.64252 118.79285 126.95912 135.50727 138.44478 148.18262 156.34889">MORD&#x00c1;I, LAIHO, Red Hot</tspan></text>
<g id="Layer-1" data-name="P">
</g>
<text fill="#828282" xml:space="preserve" transform="matrix(.7493702 0 0 .7493702 137.96657 689.7709)" font-size="14.7" font-family="CooperHewitt" font-weight="bold"><tspan y="46" x="0 9.5469059 18.065674 21.972565 25.879456 29.786347 32.72386 41.66858 49.834856 58.265504 66.69615 74.86243 80.517139 88.272159 91.20967 99.375949 107.13097">Chili Peppers &#x00e9;s </tspan></text>
<g id="Layer-1" data-name="P">
</g>
<text fill="#828282" xml:space="preserve" transform="matrix(.7493702 0 0 .7493702 137.96657 689.7709)" font-size="14.7" font-family="NotoSans" font-weight="bold"><tspan y="46" x="110.06848">&#x0414;</tspan></text>
<g id="Layer-1" data-name="P">
</g>
<text fill="#828282" xml:space="preserve" transform="matrix(.7493702 0 0 .7493702 137.96657 689.7709)" font-size="14.7" font-family="CooperHewitt" font-weight="bold"><tspan y="46" x="121.289768 129.45604 137.5195">eva</tspan></text>
<g id="Layer-1" data-name="P">
</g>
<text fill="#828282" xml:space="preserve" transform="matrix(.7493702 0 0 .7493702 137.96657 689.7709)" font-size="14.7" font-family="CooperHewitt" font-weight="bold"><tspan y="46" x="145.57813"> </tspan></text>
<g id="Layer-1" data-name="P">
</g>
<text fill="#828282" xml:space="preserve" transform="matrix(.7493702 0 0 .7493702 137.96657 689.7709)" font-size="14.7" font-family="CooperHewitt" font-weight="bold"><tspan y="70" x="0 6.5359499 9.473465 18.653183 26.819458 35.338228 43.43106 51.494524 59.557985 63.494249 71.55771 80.07648 83.98337 92.14964">&#x2022; K&#x00f6;nyvaj&#x00e1;nl&#x00f3;:</tspan></text>
<g id="Layer-1" data-name="P">
</g>
<text fill="#828282" xml:space="preserve" transform="matrix(.7493702 0 0 .7493702 137.96657 689.7709)" font-size="14.7" font-family="CooperHewitt" font-weight="bold"><tspan y="87" x="0 7.887207 15.950668 24.469437 32.63571 35.573228 43.98918 52.082017 57.736726">Jane Eyre</tspan></text>
<g id="Layer-1" data-name="P">
</g>
<text fill="#828282" xml:space="preserve" transform="matrix(.7493702 0 0 .7493702 137.96657 689.7709)" font-size="14.7" font-family="CooperHewitt" font-weight="bold"><tspan y="104" x="0 5.3609468 14.907852 23.42662 31.490082 37.14479 41.05168 49.217958 55.54828 61.8786 70.044879 72.98239 82.25023 87.90494 96.07121 104.58998 110.9203 119.08658 124.447528">(Charlotte Bront&#x00eb;),</tspan></text>
<g id="Layer-1" data-name="P">
</g>
<text fill="#828282" xml:space="preserve" transform="matrix(.7493702 0 0 .7493702 137.96657 689.7709)" font-size="14.7" font-family="CooperHewitt" font-weight="bold"><tspan y="104" x="128.34375"> </tspan></text>
<g id="Layer-1" data-name="P">
</g>
<text fill="#828282" xml:space="preserve" transform="matrix(.7493702 0 0 .7493702 137.96657 689.7709)" font-size="14.7" font-family="CooperHewitt" font-weight="bold"><tspan y="121" x="0 9.267838 17.786606 25.541626 32.870714 41.125108 49.29138 57.046403 65.21268 73.643329 76.58084 84.747119 92.50214 95.43965 104.70749 112.77095 116.67784 120.58473 126.915058 135.08133 138.98822 147.1545">B&#x00fc;szkes&#x00e9;g &#x00e9;s Balit&#x00e9;let</tspan></text>
<g id="Layer-1" data-name="P">
</g>
<text fill="#828282" xml:space="preserve" transform="matrix(.7493702 0 0 .7493702 137.96657 689.7709)" font-size="14.7" font-family="CooperHewitt" font-weight="bold"><tspan y="138" x="0 5.3609468 13.248154 21.311615 29.830384 37.99666 40.934175 50.348894 58.86766 66.62268 72.953 81.11928 89.63805">(Jane Austen)</tspan></text>
<g id="Layer-1" data-name="P">
</g>
<text fill="#828282" xml:space="preserve" transform="matrix(.7493702 0 0 .7493702 137.96657 799.3958)" font-size="14.7" font-family="CooperHewitt" font-weight="bold"><tspan y="12" x="0 6.5359499 9.473465 17.536927 25.703202 34.13385 38.04074 46.104204 50.011095 58.265489 66.43176 73.76085 80.09117 88.15463 94.484958">&#x2022; Foglalkoztat&#x00f3;</tspan></text>
</g>
</g>
</g>
</svg>
